<?xml version="1.0" encoding="UTF-8"?>
<svg width="600" height="400" viewBox="0 0 600 400" xmlns="http://www.w3.org/2000/svg">
  <defs>
    <linearGradient id="aboutGrad" x1="0%" y1="0%" x2="100%" y2="100%">
      <stop offset="0%" style="stop-color:#f9fafb;stop-opacity:1" />
      <stop offset="100%" style="stop-color:#f3f4f6;stop-opacity:1" />
    </linearGradient>
  </defs>
  
  <!-- Background -->
  <rect width="600" height="400" fill="url(#aboutGrad)"/>
  
  <!-- Modern building silhouette -->
  <rect x="100" y="150" width="400" height="200" fill="#e5e7eb" stroke="#d1d5db" stroke-width="2"/>
  
  <!-- Windows -->
  <rect x="130" y="180" width="40" height="60" fill="#9ca3af"/>
  <rect x="190" y="180" width="40" height="60" fill="#9ca3af"/>
  <rect x="250" y="180" width="40" height="60" fill="#9ca3af"/>
  <rect x="310" y="180" width="40" height="60" fill="#9ca3af"/>
  <rect x="370" y="180" width="40" height="60" fill="#9ca3af"/>
  <rect x="430" y="180" width="40" height="60" fill="#9ca3af"/>
  
  <!-- Second floor windows -->
  <rect x="130" y="260" width="40" height="60" fill="#9ca3af"/>
  <rect x="190" y="260" width="40" height="60" fill="#9ca3af"/>
  <rect x="250" y="260" width="40" height="60" fill="#9ca3af"/>
  <rect x="310" y="260" width="40" height="60" fill="#9ca3af"/>
  <rect x="370" y="260" width="40" height="60" fill="#9ca3af"/>
  <rect x="430" y="260" width="40" height="60" fill="#9ca3af"/>
  
  <!-- Door -->
  <rect x="280" y="300" width="40" height="50" fill="#6b7280"/>
  
  <!-- Decorative elements -->
  <circle cx="150" cy="100" r="30" fill="#fbbf24" opacity="0.3"/>
  <circle cx="450" cy="120" r="20" fill="#fbbf24" opacity="0.2"/>
  
  <!-- Text -->
  <text x="300" y="50" text-anchor="middle" font-family="Arial, sans-serif" font-size="24" font-weight="bold" fill="#374151">NEVA ESTUDIO</text>
  <text x="300" y="80" text-anchor="middle" font-family="Arial, sans-serif" font-size="14" fill="#6b7280">Arquitectura en Gijón</text>
</svg>