<?xml version="1.0" encoding="UTF-8"?>
<svg xmlns="http://www.w3.org/2000/svg" xmlns:xlink="http://www.w3.org/1999/xlink" version="1.1" x="0px" y="0px" viewBox="0 0 1235.74 426.89" style="enable-background:new 0 0 1235.74 426.89;" xml:space="preserve">
<style type="text/css">
	.st0{display:none;}
	.st1{display:inline;}
</style>
<g id="Estudio">
	<path d="M705.81,341.19v-80.52h5.96v80.52H705.81z M709.89,266.07v-5.4h40.15v5.4H709.89z M709.89,303.02v-5.52h37.5v5.52H709.89z    M709.89,341.19v-5.4h41.48v5.4H709.89z"></path>
	<path d="M793.27,343.06c-6.84,0-12.54-1.09-17.1-3.25c-4.56-2.17-7.98-5.15-10.26-8.93c-2.28-3.79-3.42-8.07-3.42-12.85h5.96   c0,3.68,0.86,6.99,2.59,9.93c1.73,2.94,4.43,5.28,8.11,7c3.68,1.73,8.38,2.59,14.12,2.59c5.37,0,9.85-0.77,13.46-2.32   c3.6-1.54,6.3-3.66,8.11-6.34c1.8-2.68,2.7-5.79,2.7-9.32c0-4.34-1.62-8.03-4.85-11.09c-3.24-3.05-8.16-4.91-14.78-5.57l-9.6-0.77   c-6.69-0.59-11.99-2.72-15.88-6.4c-3.9-3.68-5.85-8.49-5.85-14.45c0-4.26,0.99-8.11,2.98-11.53s4.96-6.14,8.93-8.16   c3.97-2.02,8.86-3.03,14.67-3.03c5.88,0,10.85,1.09,14.89,3.25c4.04,2.17,7.11,5.07,9.21,8.71c2.1,3.64,3.14,7.74,3.14,12.3h-5.96   c0-3.31-0.74-6.38-2.21-9.21c-1.47-2.83-3.77-5.13-6.89-6.89c-3.13-1.77-7.19-2.65-12.19-2.65c-4.85,0-8.79,0.79-11.8,2.37   c-3.02,1.58-5.24,3.68-6.67,6.29c-1.43,2.61-2.15,5.46-2.15,8.55c0,4.41,1.41,7.94,4.25,10.59c2.83,2.65,6.89,4.23,12.19,4.74   l9.6,0.77c5.37,0.44,9.91,1.67,13.62,3.7c3.71,2.02,6.53,4.62,8.44,7.78c1.91,3.16,2.87,6.73,2.87,10.7   c0,4.49-1.18,8.51-3.53,12.08c-2.35,3.57-5.77,6.36-10.26,8.38C805.21,342.05,799.74,343.06,793.27,343.06z"></path>
	<path d="M833.05,266.07v-5.4h57.58v5.4H833.05z M858.87,341.19v-76.99h5.96v76.99H858.87z"></path>
	<path d="M937.48,343.06c-7.28,0-13.31-1.42-18.09-4.25c-4.78-2.83-8.33-6.71-10.64-11.64c-2.32-4.93-3.47-10.55-3.47-16.88v-49.64   h5.96v50.41c0,5.22,0.95,9.84,2.87,13.84c1.91,4.01,4.82,7.11,8.71,9.32c3.9,2.21,8.79,3.31,14.67,3.31   c6.03,0,10.98-1.1,14.84-3.31c3.86-2.21,6.73-5.29,8.6-9.27c1.88-3.97,2.81-8.6,2.81-13.9v-50.41h5.96v49.64   c0,6.33-1.14,11.95-3.42,16.88c-2.28,4.93-5.79,8.81-10.53,11.64C950.99,341.65,944.91,343.06,937.48,343.06z"></path>
	<path d="M986.25,341.52v-81.19h5.96v81.19H986.25z M990.11,341.52V336h23.83c5.96,0,11.12-0.95,15.5-2.87   c4.37-1.91,8-4.52,10.87-7.83c2.87-3.31,5.02-7.08,6.45-11.31c1.43-4.23,2.15-8.62,2.15-13.18c0-4.78-0.72-9.27-2.15-13.46   c-1.43-4.19-3.62-7.9-6.56-11.14c-2.94-3.24-6.58-5.77-10.92-7.61c-4.34-1.84-9.45-2.76-15.33-2.76h-23.83v-5.52h23.16   c7.13,0,13.31,1.12,18.53,3.36c5.22,2.24,9.54,5.24,12.96,8.99c3.42,3.75,5.97,7.98,7.67,12.69c1.69,4.71,2.54,9.56,2.54,14.56   v1.77c0,4.78-0.81,9.54-2.43,14.28c-1.62,4.74-4.14,9.03-7.56,12.85c-3.42,3.82-7.74,6.89-12.96,9.21   c-5.22,2.32-11.47,3.47-18.75,3.47H990.11z"></path>
	<path d="M1071.22,341.5v-80.52h5.96v80.52H1071.22z"></path>
	<path d="M1134.35,343.06c-6.77,0-12.7-1.23-17.81-3.7c-5.11-2.46-9.38-5.74-12.8-9.82c-3.42-4.08-5.99-8.55-7.72-13.4   c-1.73-4.85-2.59-9.71-2.59-14.56v-1.76c0-5.07,0.9-10.04,2.7-14.89c1.8-4.85,4.45-9.28,7.94-13.29c3.49-4.01,7.76-7.19,12.8-9.54   c5.04-2.35,10.87-3.53,17.48-3.53c6.54,0,12.34,1.18,17.37,3.53c5.04,2.35,9.3,5.53,12.8,9.54c3.49,4.01,6.12,8.44,7.89,13.29   c1.76,4.85,2.65,9.82,2.65,14.89v1.76c0,4.85-0.87,9.71-2.59,14.56c-1.73,4.85-4.28,9.32-7.67,13.4   c-3.38,4.08-7.61,7.35-12.69,9.82C1147.03,341.83,1141.11,343.06,1134.35,343.06z M1134.35,337.55c5.52,0,10.42-1.03,14.73-3.09   c4.3-2.06,7.94-4.83,10.92-8.33c2.98-3.49,5.22-7.43,6.73-11.8c1.51-4.37,2.26-8.88,2.26-13.51c0-4.85-0.79-9.49-2.37-13.9   c-1.58-4.41-3.86-8.33-6.84-11.75c-2.98-3.42-6.62-6.12-10.92-8.11c-4.3-1.99-9.14-2.98-14.51-2.98c-5.44,0-10.31,0.99-14.62,2.98   c-4.3,1.99-7.96,4.69-10.98,8.11c-3.02,3.42-5.31,7.34-6.89,11.75c-1.58,4.41-2.37,9.05-2.37,13.9c0,4.63,0.77,9.14,2.32,13.51   c1.54,4.38,3.81,8.31,6.78,11.8c2.98,3.49,6.62,6.27,10.92,8.33C1123.81,336.52,1128.76,337.55,1134.35,337.55z"></path>
</g>
<g id="Neva">
	<path d="M705.56,98.17h33.42l53.59,124.49V98.17h17.4v128.15h-34.61l-52.4-123.57v123.57h-17.4V98.17z"></path>
	<path d="M844.77,98.17h85.03v15.01h-67.23v39.54h61.1v15.01h-61.1v43.57h67.23v15.01h-85.03V98.17z"></path>
	<path d="M947.2,98.17h18.98l38.36,123.57l38.36-123.57h18.98l-40.74,128.15h-33.22L947.2,98.17z"></path>
	<path d="M1145.19,193.18h-58.14l-10.68,33.14h-19.18l43.11-128.15h32.03l42.71,128.15h-19.18L1145.19,193.18z M1140.45,178.53   l-24.32-75.79l-24.32,75.79H1140.45z"></path>
</g>
<g id="Logo_3">
	<path d="M513.03,242.05c58.6,0,106.1-47.5,106.1-106.1c0-58.6-47.5-106.1-106.1-106.1V242.05z"></path>
</g>
<g id="Logo">
	<polygon points="145.35,29.84 145.35,184.86 513.03,397.05 513.03,242.05  "></polygon>
</g>
<g id="Logo_1">
	<path d="M145.35,184.86c-58.6,0-106.1,47.5-106.1,106.1c0,58.6,47.5,106.1,106.1,106.1V184.86z"></path>
</g>
<g id="Capa_6" class="st0">
	<g class="st1">
		<defs>
			<polygon id="SVGID_1_" points="168.73,30.38 168.73,185.4 536.41,397.59 536.41,242.6    "></polygon>
		</defs>
		<clipPath id="SVGID_00000157269418655408173110000000469795581150701231_">
			<use xlink:href="#SVGID_1_" style="overflow:visible;"></use>
		</clipPath>
	</g>
</g>
<g id="Capa_7" class="st0">
	<g class="st1">
		<defs>
			<polygon id="SVGID_00000026165659088737433730000013131254364866949505_" points="168.73,30.38 168.73,185.4 536.41,397.59      536.41,242.6    "></polygon>
		</defs>
		<clipPath id="SVGID_00000046298363226009044740000015283824369007741081_">
			<use xlink:href="#SVGID_00000026165659088737433730000013131254364866949505_" style="overflow:visible;"></use>
		</clipPath>
	</g>
</g>
<g id="Capa_8" class="st0">
	<g class="st1">
		<defs>
			<polygon id="SVGID_00000079485622090738267900000005281613250333843372_" points="168.73,30.38 168.73,185.4 536.41,397.59      536.41,242.6    "></polygon>
		</defs>
		<clipPath id="SVGID_00000013180140237613114450000010396098340610423724_">
			<use xlink:href="#SVGID_00000079485622090738267900000005281613250333843372_" style="overflow:visible;"></use>
		</clipPath>
	</g>
</g>
<g id="Capa_9" class="st0">
	<g class="st1">
		<defs>
			<polygon id="SVGID_00000026866630942296320060000003309404193563331004_" points="168.73,30.38 168.73,185.4 536.41,397.59      536.41,242.6    "></polygon>
		</defs>
		<clipPath id="SVGID_00000169547463816333095350000001628378334018250115_">
			<use xlink:href="#SVGID_00000026866630942296320060000003309404193563331004_" style="overflow:visible;"></use>
		</clipPath>
	</g>
</g>
<g id="Capa_10" class="st0">
	<g class="st1">
		<defs>
			<polygon id="SVGID_00000096047476909138077640000009685646296027798431_" points="146,30.38 146,185.4 513.68,397.59      513.68,242.6    "></polygon>
		</defs>
		<clipPath id="SVGID_00000155122556214253770470000018133147636079992482_">
			<use xlink:href="#SVGID_00000096047476909138077640000009685646296027798431_" style="overflow:visible;"></use>
		</clipPath>
	</g>
</g>
<g id="Capa_11" class="st0">
</g>
<g id="Capa_12" class="st0">
</g>
</svg>
