<?xml version="1.0" encoding="UTF-8"?>
<svg xmlns="http://www.w3.org/2000/svg" xmlns:xlink="http://www.w3.org/1999/xlink" version="1.1" x="0px" y="0px" viewBox="0 0 512 512" style="enable-background:new 0 0 512 512;" xml:space="preserve">
<style type="text/css">
	.st0{display:none;}
	.st1{display:inline;}
</style>
<g id="Estudio" class="st0">
	<path class="st1" d="M-234.87,561.19V497.2h4.73v63.99H-234.87z M-231.62,501.49v-4.29h31.91v4.29H-231.62z M-231.62,530.86v-4.38   h29.8v4.38H-231.62z M-231.62,561.19v-4.29h32.96v4.29H-231.62z"></path>
	<path class="st1" d="M-165.37,562.68c-5.43,0-9.96-0.86-13.59-2.59c-3.62-1.72-6.34-4.09-8.15-7.1c-1.81-3.01-2.72-6.41-2.72-10.21   h4.73c0,2.92,0.69,5.55,2.06,7.89c1.37,2.34,3.52,4.19,6.44,5.57c2.92,1.37,6.66,2.06,11.22,2.06c4.26,0,7.83-0.61,10.69-1.84   c2.86-1.23,5.01-2.91,6.44-5.04c1.43-2.13,2.15-4.6,2.15-7.41c0-3.45-1.29-6.38-3.86-8.81c-2.57-2.42-6.49-3.9-11.75-4.43   l-7.63-0.61c-5.32-0.47-9.53-2.16-12.62-5.08c-3.1-2.92-4.65-6.75-4.65-11.48c0-3.39,0.79-6.44,2.37-9.16s3.94-4.88,7.1-6.49   c3.16-1.61,7.04-2.41,11.66-2.41c4.67,0,8.62,0.86,11.83,2.59c3.21,1.72,5.65,4.03,7.32,6.92c1.67,2.89,2.5,6.15,2.5,9.77h-4.73   c0-2.63-0.58-5.07-1.75-7.32c-1.17-2.25-3-4.08-5.48-5.48c-2.48-1.4-5.71-2.1-9.69-2.1c-3.86,0-6.98,0.63-9.38,1.88   c-2.4,1.26-4.16,2.92-5.3,5c-1.14,2.08-1.71,4.34-1.71,6.79c0,3.51,1.12,6.31,3.37,8.41c2.25,2.1,5.48,3.36,9.69,3.77l7.63,0.61   c4.26,0.35,7.87,1.33,10.83,2.94c2.95,1.61,5.19,3.67,6.71,6.18c1.52,2.51,2.28,5.35,2.28,8.5c0,3.57-0.94,6.76-2.8,9.6   c-1.87,2.83-4.59,5.06-8.15,6.66C-155.88,561.87-160.23,562.68-165.37,562.68z"></path>
	<path class="st1" d="M-133.75,501.49v-4.29H-88v4.29H-133.75z M-113.24,561.19V500h4.73v61.18H-113.24z"></path>
	<path class="st1" d="M-50.77,562.68c-5.79,0-10.58-1.13-14.38-3.37c-3.8-2.25-6.62-5.33-8.46-9.25c-1.84-3.91-2.76-8.38-2.76-13.41   V497.2h4.73v40.06c0,4.15,0.76,7.82,2.28,11c1.52,3.19,3.83,5.65,6.92,7.41c3.1,1.75,6.98,2.63,11.66,2.63   c4.79,0,8.72-0.88,11.79-2.63c3.07-1.75,5.35-4.21,6.84-7.36c1.49-3.16,2.24-6.84,2.24-11.04V497.2h4.73v39.44   c0,5.03-0.91,9.5-2.72,13.41c-1.81,3.92-4.6,7-8.37,9.25C-40.03,561.55-44.87,562.68-50.77,562.68z"></path>
	<path class="st1" d="M-12.02,561.45v-64.51h4.73v64.51H-12.02z M-8.95,561.45v-4.38H9.99c4.73,0,8.84-0.76,12.32-2.28   c3.48-1.52,6.35-3.59,8.63-6.22s3.99-5.62,5.13-8.98c1.14-3.36,1.71-6.85,1.71-10.47c0-3.8-0.57-7.36-1.71-10.69   c-1.14-3.33-2.88-6.28-5.22-8.85c-2.34-2.57-5.23-4.59-8.68-6.05c-3.45-1.46-7.51-2.19-12.18-2.19H-8.95v-4.38H9.46   c5.67,0,10.58,0.89,14.73,2.67c4.15,1.78,7.58,4.16,10.3,7.14c2.72,2.98,4.75,6.34,6.09,10.08c1.34,3.74,2.02,7.6,2.02,11.57v1.4   c0,3.8-0.64,7.58-1.93,11.35c-1.29,3.77-3.29,7.17-6,10.21c-2.72,3.04-6.15,5.48-10.3,7.32c-4.15,1.84-9.12,2.76-14.9,2.76H-8.95z"></path>
	<path class="st1" d="M55.5,561.43v-63.99h4.73v63.99H55.5z"></path>
	<path class="st1" d="M105.67,562.68c-5.38,0-10.1-0.98-14.16-2.94c-4.06-1.96-7.45-4.56-10.17-7.8c-2.72-3.24-4.76-6.79-6.14-10.65   c-1.37-3.86-2.06-7.71-2.06-11.57v-1.4c0-4.03,0.71-7.98,2.15-11.83c1.43-3.86,3.53-7.38,6.31-10.56   c2.77-3.18,6.16-5.71,10.17-7.58c4-1.87,8.63-2.8,13.89-2.8c5.2,0,9.8,0.94,13.81,2.8c4,1.87,7.39,4.4,10.17,7.58   c2.77,3.19,4.86,6.71,6.27,10.56c1.4,3.86,2.1,7.8,2.1,11.83v1.4c0,3.86-0.69,7.71-2.06,11.57c-1.37,3.86-3.4,7.41-6.09,10.65   c-2.69,3.24-6.05,5.84-10.08,7.8C115.75,561.7,111.04,562.68,105.67,562.68z M105.67,558.29c4.38,0,8.28-0.82,11.7-2.45   c3.42-1.64,6.31-3.84,8.68-6.62c2.37-2.77,4.15-5.9,5.35-9.38c1.2-3.48,1.8-7.06,1.8-10.74c0-3.86-0.63-7.54-1.88-11.04   c-1.26-3.51-3.07-6.62-5.43-9.34c-2.37-2.72-5.26-4.86-8.68-6.44s-7.26-2.37-11.53-2.37c-4.33,0-8.2,0.79-11.61,2.37   s-6.33,3.73-8.72,6.44c-2.4,2.72-4.22,5.83-5.48,9.34c-1.26,3.51-1.88,7.19-1.88,11.04c0,3.68,0.61,7.26,1.84,10.74   c1.23,3.48,3.02,6.6,5.39,9.38c2.37,2.78,5.26,4.98,8.68,6.62C97.3,557.47,101.23,558.29,105.67,558.29z"></path>
</g>
<g id="Neva" class="st0">
	<path class="st1" d="M-235.07,368.07h26.56l42.58,98.93v-98.93h13.83V469.9h-27.5l-41.64-98.2v98.2h-13.83V368.07z"></path>
	<path class="st1" d="M-124.44,368.07h67.57V380h-53.43v31.42h48.56v11.93h-48.56v34.62h53.43v11.93h-67.57V368.07z"></path>
	<path class="st1" d="M-43.04,368.07h15.09l30.48,98.2l30.48-98.2h15.09L15.72,469.9h-26.4L-43.04,368.07z"></path>
	<path class="st1" d="M114.28,443.57h-46.2L59.6,469.9H44.36l34.26-101.83h25.46l33.94,101.83h-15.24L114.28,443.57z M110.51,431.93   l-19.33-60.23l-19.33,60.23H110.51z"></path>
</g>
<g id="Logo_3">
	<path d="M400.72,278.52c46.13,0,83.52-37.39,83.52-83.52c0-46.13-37.39-83.52-83.52-83.52V278.52z"></path>
</g>
<g id="Logo">
	<polygon points="111.28,111.46 111.28,233.5 400.72,400.54 400.72,278.52  "></polygon>
</g>
<g id="Logo_1">
	<path d="M111.28,233.5c-46.13,0-83.52,37.39-83.52,83.52c0,46.13,37.39,83.52,83.52,83.52V233.5z"></path>
</g>
<g id="Capa_6">
	<g>
		<defs>
			<polygon id="SVGID_1_" points="-234.62,-183.16 -234.62,-28.14 133.06,184.05 133.06,29.05    "></polygon>
		</defs>
		<clipPath id="SVGID_00000098213100129123603730000007905964134641788333_">
			<use xlink:href="#SVGID_1_" style="overflow:visible;"></use>
		</clipPath>
	</g>
</g>
<g id="Capa_7">
	<g>
		<defs>
			<polygon id="SVGID_00000005964224985268569590000005369974297528532392_" points="-234.62,-183.16 -234.62,-28.14 133.06,184.05      133.06,29.05    "></polygon>
		</defs>
		<clipPath id="SVGID_00000090294622927713333700000002076550212703836808_">
			<use xlink:href="#SVGID_00000005964224985268569590000005369974297528532392_" style="overflow:visible;"></use>
		</clipPath>
	</g>
</g>
<g id="Capa_8">
	<g>
		<defs>
			<polygon id="SVGID_00000042706840719513137840000011992400100851356054_" points="-234.62,-183.16 -234.62,-28.14 133.06,184.05      133.06,29.05    "></polygon>
		</defs>
		<clipPath id="SVGID_00000012439002823348137370000016930399712730165903_">
			<use xlink:href="#SVGID_00000042706840719513137840000011992400100851356054_" style="overflow:visible;"></use>
		</clipPath>
	</g>
</g>
<g id="Capa_9">
	<g>
		<defs>
			<polygon id="SVGID_00000047037395739400627990000018129531195359372453_" points="-234.62,-183.16 -234.62,-28.14 133.06,184.05      133.06,29.05    "></polygon>
		</defs>
		<clipPath id="SVGID_00000088122506376285996100000013982833168396931722_">
			<use xlink:href="#SVGID_00000047037395739400627990000018129531195359372453_" style="overflow:visible;"></use>
		</clipPath>
	</g>
</g>
<g id="Capa_10">
	<g>
		<defs>
			<polygon id="SVGID_00000117636234234268192520000008807343056805831069_" points="111.28,111.46 111.28,233.5 400.72,400.54      400.72,278.52    "></polygon>
		</defs>
		<clipPath id="SVGID_00000165202322437758056050000014938849899285001132_">
			<use xlink:href="#SVGID_00000117636234234268192520000008807343056805831069_" style="overflow:visible;"></use>
		</clipPath>
	</g>
</g>
<g id="Capa_11">
</g>
<g id="Capa_12">
</g>
</svg>
